<svg width="240" height="89" viewBox="0 0 240 89" fill="none" xmlns="http://www.w3.org/2000/svg">
<path d="M240 66.1228V68.5505H226.012V86.816H223.122V68.5505H161.158C160.117 68.5505 159.539 67.51 160.348 66.4696L223.584 0.459265C224.393 -0.349965 226.012 -0.118758 226.012 1.3841V66.1228H240ZM223.122 43.4642L201.966 66.1228H223.122V43.4642ZM164.395 66.1228H168.094L223.122 7.85797V4.85224L164.395 66.1228ZM171.215 66.1228H174.221L223.122 14.3318V11.0949L171.215 66.1228ZM176.995 66.1228H180.001L223.122 20.5745V17.4532L176.995 66.1228ZM182.891 66.1228H186.013L223.122 26.8171V23.6958L182.891 66.1228ZM188.787 66.1228H191.677L223.122 32.9442V29.9385L188.787 66.1228ZM194.683 66.1228H198.035L223.122 39.4181V36.0655L194.683 66.1228Z" fill="#274441"/>
<path d="M88.48 62.4234L91.139 61.2674C94.1447 75.4867 106.63 86.1224 121.659 86.1224C138.884 86.1224 152.872 72.0186 152.872 54.4467C152.872 36.9904 138.884 22.771 121.659 22.771C111.601 22.771 102.468 27.6264 96.8036 35.1407C96.3412 35.7187 95.8787 35.9499 95.4163 35.9499C94.6071 35.9499 94.1447 35.4875 94.1447 34.6783L98.5376 3.11817C98.6533 2.19333 99.0001 1.73091 100.156 1.73091H149.751V4.15861H129.404L127.092 20.8057C143.277 23.349 155.762 37.5684 155.762 54.4467C155.762 73.2903 140.502 88.5501 121.659 88.5501C105.59 88.5501 92.0638 77.3364 88.48 62.4234ZM98.0752 29.8229C98.6533 29.1292 99.3469 28.5512 100.041 27.9732L103.509 4.15861H101.312L97.6128 29.8229H98.0752ZM102.815 25.7767C103.624 25.1987 104.549 24.7363 105.358 24.2738L108.248 4.15861H105.936L102.815 25.7767ZM107.67 23.1178L110.098 22.193L112.641 4.15861H110.445L107.67 23.1178ZM112.526 21.4993L114.954 20.9213L117.381 4.15861H115.069L112.526 21.4993ZM117.034 20.6901C117.844 20.5745 118.653 20.4589 119.462 20.4589L121.89 4.15861H119.462L117.034 20.6901ZM126.398 4.15861H124.086L121.774 20.3433C122.583 20.3433 123.161 20.4589 124.086 20.4589L126.398 4.15861Z" fill="#274441"/>
<path d="M0 86.816V1.73091H51.6753C72.4842 1.73091 82.4262 14.563 82.4262 28.898C82.4262 43.1174 72.4842 56.2964 51.6753 56.2964H32.4849V86.816H0ZM51.6753 4.15861H32.4849V53.8687H51.6753C69.9409 53.8687 79.5361 42.4238 79.5361 28.898C79.5361 15.6035 70.5189 4.15861 51.6753 4.15861ZM13.2945 84.3883V4.15861H11.2137V84.3883H13.2945ZM17.4563 84.3883V4.15861H15.3754V84.3883H17.4563ZM9.24838 84.3883V4.15861H7.16749V84.3883H9.24838ZM25.6643 84.3883V4.15861H23.5834V84.3883H25.6643ZM3.00572 4.15861V84.3883H5.08661V4.15861H3.00572ZM21.5025 84.3883V4.15861H19.4216V84.3883H21.5025ZM29.5948 4.15861H27.6295V84.3883H29.5948V4.15861Z" fill="#274441"/>
</svg>
